HIERARCHY
ROOT Pelvis
{
	OFFSET 0.000000 0.000000 0.000000
	CHANNELS 6 Xposition Yposition Zposition Xrotation Yrotation Zrotation
	JOINT LeftUpLeg_virtual
	{
		OFFSET 0.000000 0.000000 0.000000
		CHANNELS 3 Xrotation Yrotation Zrotation
		JOINT LeftUpLeg
		{
			OFFSET 18.735201 -5.666702 -4.541200
			CHANNELS 3 Xrotation Yrotation Zrotation
			JOINT LeftLeg
			{
				OFFSET -0.021200 -31.938179 0.493100
				CHANNELS 3 Xrotation Yrotation Zrotation
				JOINT LeftFoot
				{
					OFFSET 0.021200 -31.938179 -4.336299
					CHANNELS 3 Xrotation Yrotation Zrotation
					JOINT LeftToeBase
					{
						OFFSET 0.943001 -26.722000 15.023500
						CHANNELS 3 Xrotation Yrotation Zrotation
						End Site
						{
							OFFSET 0 0 0
						}
					}
				}
			}
		}
	}
	JOINT RightUpLeg_virtual
	{
		OFFSET 0.000000 0.000000 0.000000
		CHANNELS 3 Xrotation Yrotation Zrotation
		JOINT RightUpLeg
		{
			OFFSET -18.735201 -5.666702 -4.541200
			CHANNELS 3 Xrotation Yrotation Zrotation
			JOINT RightLeg
			{
				OFFSET 0.018946 -31.938133 0.493100
				CHANNELS 3 Xrotation Yrotation Zrotation
				JOINT RightFoot
				{
					OFFSET -0.018946 -31.938126 -4.336299
					CHANNELS 3 Xrotation Yrotation Zrotation
					JOINT RightToeBase
					{
						OFFSET -0.943001 -26.722004 15.023500
						CHANNELS 3 Xrotation Yrotation Zrotation
						End Site
						{
							OFFSET 0 0 0
						}
					}
				}
			}
		}
	}
	JOINT Hips_virtual
	{
		OFFSET 0.000000 0.000000 0.000000
		CHANNELS 3 Xrotation Yrotation Zrotation
		JOINT Hips
		{
			OFFSET -0.000000 -0.000000 -0.000000
			CHANNELS 3 Xrotation Yrotation Zrotation
			JOINT Spine
			{
				OFFSET 0.000000 10.199997 -0.299500
				CHANNELS 3 Xrotation Yrotation Zrotation
				JOINT Spine1
				{
					OFFSET 0.000000 11.900002 -1.516600
					CHANNELS 3 Xrotation Yrotation Zrotation
					JOINT Spine2
					{
						OFFSET 0.000000 13.600006 -2.842500
						CHANNELS 3 Xrotation Yrotation Zrotation
						JOINT Neck_virtual
						{
							OFFSET 0.000000 0.000000 0.000000
							CHANNELS 3 Xrotation Yrotation Zrotation
							JOINT Neck
							{
								OFFSET 0.000000 9.624100 -2.890100
								CHANNELS 3 Xrotation Yrotation Zrotation
								JOINT Head
								{
									OFFSET 0.000000 14.068802 -1.351900
									CHANNELS 3 Xrotation Yrotation Zrotation
									End Site
									{
										OFFSET 0 0 0
									}
								}
							}
						}
						JOINT LeftShoulder_virtual
						{
							OFFSET 0.000000 0.000000 0.000000
							CHANNELS 3 Xrotation Yrotation Zrotation
							JOINT LeftShoulder
							{
								OFFSET 15.263000 10.923401 -0.547700
								CHANNELS 3 Xrotation Yrotation Zrotation
								JOINT LeftArm
								{
									OFFSET 25.438599 -2.830597 -13.032500
									CHANNELS 3 Xrotation Yrotation Zrotation
									JOINT LeftForeArm
									{
										OFFSET 29.960503 0.000000 0.000000
										CHANNELS 3 Xrotation Yrotation Zrotation
										JOINT LeftHand
										{
											OFFSET 27.849251 0.000000 0.000000
											CHANNELS 3 Xrotation Yrotation Zrotation
											End Site
											{
												OFFSET 0 0 0
											}
										}
									}
								}
							}
						}
						JOINT RightShoulder_virtual
						{
							OFFSET 0.000000 0.000000 0.000000
							CHANNELS 3 Xrotation Yrotation Zrotation
							JOINT RightShoulder
							{
								OFFSET -15.263000 10.923401 -0.547700
								CHANNELS 3 Xrotation Yrotation Zrotation
								JOINT RightArm
								{
									OFFSET -25.438599 -2.830597 -13.032500
									CHANNELS 3 Xrotation Yrotation Zrotation
									JOINT RightForeArm
									{
										OFFSET -29.960503 0.000000 0.000000
										CHANNELS 3 Xrotation Yrotation Zrotation
										JOINT RightHand
										{
											OFFSET -27.849251 0.000000 0.000000
											CHANNELS 3 Xrotation Yrotation Zrotation
											End Site
											{
												OFFSET 0 0 0
											}
										}
									}
								}
							}
						}
					}
				}
			}
		}
	}
}
MOTION
Frames: 8
Frame Time: 0.03333333
55.437927 27.368183 34.296017 0.000000 0.000000 0.000000 21.353654 -73.642478 -12.782925 -53.987574 -35.523066 -45.601601 140.768368 36.444424 -101.037233 30.464734 -5.189941 -10.659455 0.000000 0.000000 0.000000 42.921797 -72.269617 8.779228 -32.670028 2.902163 -26.384705 136.300933 21.622866 -3.685532 -24.260504 24.845877 53.293736 0.000000 0.000000 0.000000 33.088213 -64.208894 -0.246990 -4.394368 -3.703447 0.688040 -7.452600 -20.753774 -0.257062 -7.283787 -5.795691 -12.239020 0.000000 0.000000 0.000000 -7.105412 0.856299 -6.315398 8.323261 2.406449 6.346063 0.000000 0.000000 0.000000 16.184968 4.845416 4.297765 12.920448 -32.896732 20.582538 -14.480850 46.372094 48.459803 -41.410624 -14.904113 71.433451 0.000000 0.000000 0.000000 -8.802397 -16.454015 -15.117934 49.677318 -3.554219 -3.371048 -53.519317 -27.350403 -76.643779 57.305342 24.965504 93.261479 0.000000 0.000000 0.000000 
56.232910 27.420471 35.808945 0.000000 0.000000 0.000000 26.140923 -73.173907 -9.066176 -53.641656 -37.290763 -45.439855 141.818168 36.265002 -100.607840 29.309602 -5.307471 -12.213093 0.000000 0.000000 0.000000 46.342048 -71.453232 11.363122 -35.235959 3.671302 -26.062453 139.279483 22.288968 -5.082496 -28.451484 23.628117 55.250373 0.000000 0.000000 0.000000 35.832603 -63.448769 1.556047 -4.431382 -3.701364 0.693579 -7.008378 -21.088581 0.429252 -7.251181 -5.958289 -12.166260 0.000000 0.000000 0.000000 -7.436012 0.727148 -6.295706 7.898017 2.072236 6.406898 0.000000 0.000000 0.000000 16.022159 4.652776 4.297133 12.827629 -31.003434 20.710715 -12.456304 47.244299 44.916745 -42.616644 -16.279481 70.524654 0.000000 0.000000 0.000000 -8.726864 -16.615033 -15.124267 50.038096 -3.969525 -1.752768 -54.266761 -28.798198 -71.044752 57.758866 25.532743 92.960084 0.000000 0.000000 0.000000 
56.814194 27.496830 37.167747 0.000000 0.000000 0.000000 30.312093 -72.862245 -5.975578 -53.547218 -38.738705 -45.087175 142.283099 35.693018 -99.178814 28.015679 -5.513971 -13.968972 0.000000 0.000000 0.000000 49.422638 -70.807622 13.569884 -37.258839 3.979730 -26.155014 140.662692 23.164875 -5.888318 -32.409907 22.206588 57.139604 0.000000 0.000000 0.000000 38.287267 -62.811430 3.057292 -4.457010 -3.703678 0.692727 -6.572637 -21.378210 1.052626 -7.300522 -6.052231 -12.079890 0.000000 0.000000 0.000000 -7.659249 0.637194 -6.282925 7.506309 1.767906 6.433978 0.000000 0.000000 0.000000 15.832119 4.478552 4.222943 12.669919 -28.985769 20.847873 -10.380007 48.010551 41.104184 -43.758167 -17.813787 69.736552 0.000000 0.000000 0.000000 -8.807428 -16.663652 -15.084382 50.254408 -4.471009 -0.379401 -54.475827 -30.067736 -65.002760 58.411723 25.589852 92.540157 0.000000 0.000000 0.000000 
57.119209 27.631973 38.474739 0.000000 0.000000 0.000000 34.050525 -72.727410 -3.344084 -53.176233 -39.912118 -44.418288 142.379747 35.206538 -97.474818 26.764868 -5.619992 -15.616603 0.000000 0.000000 0.000000 52.298970 -70.341127 15.519679 -38.281462 3.458778 -26.653842 140.527372 24.082180 -5.755898 -36.636540 19.961212 58.102418 0.000000 0.000000 0.000000 40.573742 -62.380049 4.371131 -4.473893 -3.707633 0.680439 -6.111635 -21.639315 1.678058 -7.453597 -6.093341 -11.930000 0.000000 0.000000 0.000000 -7.837318 0.578583 -6.233011 7.145396 1.486543 6.438453 0.000000 0.000000 0.000000 15.564321 4.326987 4.129871 12.450245 -26.913211 20.990449 -8.196961 48.591998 37.035618 -44.864743 -19.415646 69.056559 0.000000 0.000000 0.000000 -8.994374 -16.615033 -14.955548 50.320148 -4.997539 0.761748 -54.366977 -31.272656 -59.157416 59.112002 25.422200 92.065001 0.000000 0.000000 0.000000 
57.181671 27.872620 39.842968 0.000000 0.000000 0.000000 37.427797 -72.679852 -1.125637 -52.113988 -40.889583 -43.345979 142.140389 35.313768 -96.235125 25.568103 -5.769768 -17.197098 0.000000 0.000000 0.000000 54.994798 -69.981804 17.220246 -38.299043 2.217070 -27.448022 138.982615 24.921864 -4.836256 -40.503975 17.472879 58.288834 0.000000 0.000000 0.000000 42.763886 -62.134955 5.548739 -4.473110 -3.705059 0.660575 -5.612135 -21.814359 2.309461 -7.678784 -6.073885 -11.699387 0.000000 0.000000 0.000000 -8.055588 0.542881 -6.120239 6.794206 1.216240 6.427851 0.000000 0.000000 0.000000 15.218512 4.199566 4.076903 12.192029 -24.887966 21.135677 -5.890242 48.920666 32.715284 -45.952526 -21.052270 68.444902 0.000000 0.000000 0.000000 -9.195363 -16.497808 -14.725432 50.229013 -5.474481 1.710441 -54.269876 -32.621055 -54.066538 59.694378 25.320174 91.533981 0.000000 0.000000 0.000000 
56.947369 28.213139 41.144600 0.000000 0.000000 0.000000 40.648044 -72.726693 0.884783 -50.366351 -41.593851 -41.867868 141.464283 36.009608 -95.522579 24.772633 -5.975187 -18.602205 0.000000 0.000000 0.000000 57.629325 -69.760629 18.815677 -37.690777 0.413046 -28.450883 136.085591 25.633024 -3.280266 -43.039986 15.561252 58.371603 0.000000 0.000000 0.000000 44.890295 -62.055998 6.644795 -4.458915 -3.691694 0.641730 -5.070797 -21.847103 2.912086 -7.940347 -6.006953 -11.394574 0.000000 0.000000 0.000000 -8.347235 0.503414 -5.956015 6.436227 0.952263 6.409230 0.000000 0.000000 0.000000 14.791975 4.078271 4.088281 11.899568 -22.977211 21.274135 -3.504677 48.984904 28.250555 -47.042562 -22.683487 67.915665 0.000000 0.000000 0.000000 -9.286533 -16.347641 -14.398360 49.981023 -5.913147 2.495024 -54.340483 -34.230606 -49.795938 60.071855 25.470919 90.935445 0.000000 0.000000 0.000000 
56.419449 28.633717 42.296013 0.000000 0.000000 0.000000 43.950662 -72.895426 2.957126 -48.259743 -41.846377 -40.028146 140.385960 36.777027 -94.804938 24.370386 -6.019778 -19.586155 0.000000 0.000000 0.000000 60.402307 -69.674008 20.546271 -36.683826 -1.586220 -29.365568 132.100462 26.132077 -1.391070 -43.524482 14.816552 58.659775 0.000000 0.000000 0.000000 47.053648 -62.159489 7.779649 -4.447155 -3.665284 0.630083 -4.560576 -21.714609 3.416362 -8.185726 -5.927778 -11.041995 0.000000 0.000000 0.000000 -8.713908 0.430492 -5.761872 6.051208 0.680433 6.382794 0.000000 0.000000 0.000000 14.292010 3.949698 4.137011 11.566916 -21.248688 21.392583 -1.220002 48.808238 23.873555 -48.142804 -24.265342 67.477870 0.000000 0.000000 0.000000 -9.198007 -16.211825 -14.016519 49.593334 -6.363597 3.153106 -54.670644 -36.065465 -45.943127 60.243040 25.901918 90.224040 0.000000 0.000000 0.000000 
55.637062 29.136066 43.245346 0.000000 0.000000 0.000000 47.530409 -73.207163 5.329032 -46.182549 -41.682479 -37.970709 138.835753 37.286406 -93.571420 23.806744 -5.890296 -20.211081 0.000000 0.000000 0.000000 63.463099 -69.740739 22.607233 -35.260807 -3.603041 -29.960912 127.312472 26.221658 0.736855 -42.467910 15.048949 58.746006 0.000000 0.000000 0.000000 49.349985 -62.393389 9.050693 -4.440453 -3.617049 0.631813 -4.073702 -21.421012 3.838273 -8.394048 -5.861079 -10.680265 0.000000 0.000000 0.000000 -9.108569 0.301792 -5.578237 5.634164 0.401536 6.351785 0.000000 0.000000 0.000000 13.739165 3.787968 4.177935 11.197813 -19.737382 21.468577 0.826247 48.449424 19.778841 -49.271923 -25.725375 67.155540 0.000000 0.000000 0.000000 -8.970452 -16.108665 -13.617346 49.086039 -6.840884 3.733051 -55.088116 -38.123517 -41.967483 60.253538 26.573875 89.354618 0.000000 0.000000 0.000000 
